<svg xmlns="http://www.w3.org/2000/svg" viewBox="0 0 96 96" role="img">
  <path fill="#00599c" d="M48 4 86 26v44L48 92 10 70V26L48 4z"/>
  <path fill="#004482" d="M48 13 78 31v34L48 83 18 65V31l30-18z"/>
  <path fill="#fff" d="M47.6 65.8c-10.5 0-18.3-7.6-18.3-17.8s7.8-17.8 18.3-17.8c6.6 0 12.2 3.2 15.4 8.3l-8.1 4.7c-1.4-2.6-4-4.2-7.2-4.2-5.3 0-8.8 3.7-8.8 9s3.5 9 8.8 9c3.2 0 5.9-1.6 7.2-4.2l8.1 4.7c-3.1 5.1-8.8 8.3-15.4 8.3z"/>
  <path fill="#fff" d="M68.2 45.4h-4.8v-5h4.8v-4.9h5.2v4.9h4.8v5h-4.8v4.9h-5.2v-4.9zm0 14.9h-4.8v-5h4.8v-4.9h5.2v4.9h4.8v5h-4.8v4.9h-5.2v-4.9z"/>
</svg>
