<svg xmlns="http://www.w3.org/2000/svg" viewBox="0 0 96 96" role="img">
  <path fill="#68217a" d="M48 4 86 26v44L48 92 10 70V26L48 4z"/>
  <path fill="#8133a3" d="M48 13 78 31v34L48 83 18 65V31l30-18z"/>
  <path fill="#fff" d="M45.8 65.8c-10.5 0-18.3-7.6-18.3-17.8s7.8-17.8 18.3-17.8c6.6 0 12.2 3.2 15.4 8.3l-8.1 4.7c-1.4-2.6-4-4.2-7.2-4.2-5.3 0-8.8 3.7-8.8 9s3.5 9 8.8 9c3.2 0 5.9-1.6 7.2-4.2l8.1 4.7c-3.1 5.1-8.8 8.3-15.4 8.3z"/>
  <path fill="#fff" d="M67.2 37.4h3.5l.6-5.7h4.4l-.6 5.7h4.2v4h-4.6l-.7 6.4h4.3v4h-4.7l-.7 6.6h-4.4l.7-6.6h-3.5l-.7 6.6h-4.4l.7-6.6h-4.1v-4h4.5l.7-6.4h-4.2v-4h4.6l.6-5.7h4.4l-.6 5.7zm-.4 10.4h3.5l.7-6.4h-3.5l-.7 6.4z"/>
</svg>
